<svg width="15" height="10" viewBox="0 0 15 10" fill="#000000" xmlns="http://www.w3.org/2000/svg">
<path d="M0.9375 5.71378H12.0563L8.65312 8.82778C8.57433 8.9 8.51498 8.98334 8.47846 9.07303C8.44195 9.16273 8.42898 9.25702 8.44029 9.35054C8.46315 9.5394 8.58355 9.7136 8.775 9.83484C8.96645 9.95607 9.21328 10.0144 9.46118 9.99698C9.70908 9.97957 9.93775 9.88784 10.0969 9.74199L14.7844 5.45666C14.8159 5.42257 14.8441 5.38676 14.8688 5.34952C14.8688 5.31381 14.9156 5.29238 14.9344 5.25667C14.9769 5.17478 14.9991 5.08761 15 4.99955C14.9991 4.9115 14.9769 4.82433 14.9344 4.74243C14.9344 4.70672 14.8875 4.6853 14.8688 4.64958C14.8441 4.61235 14.8159 4.57654 14.7844 4.54245L10.0969 0.257121C10.0087 0.176498 9.89835 0.111661 9.77358 0.0672212C9.64882 0.0227816 9.51273 -0.000169036 9.375 1.36442e-06C9.15595 -0.000324687 8.94367 0.0577954 8.775 0.164272C8.68007 0.224231 8.6016 0.297867 8.54408 0.380965C8.48656 0.464063 8.45113 0.554989 8.43981 0.648535C8.42849 0.742082 8.4415 0.836411 8.47811 0.926119C8.51471 1.01583 8.57419 1.09915 8.65312 1.17132L12.0563 4.28533H0.9375C0.68886 4.28533 0.450403 4.36058 0.274588 4.49452C0.0987722 4.62847 0 4.81013 0 4.99955C0 5.18898 0.0987722 5.37064 0.274588 5.50458C0.450403 5.63853 0.68886 5.71378 0.9375 5.71378Z" fill="white"/>
</svg>
