<svg width="12" height="15" viewBox="0 0 12 15" fill="none" xmlns="http://www.w3.org/2000/svg">
<path d="M5.57511 3.52649C5.16932 3.52649 4.77264 3.64682 4.43524 3.87227C4.09783 4.09771 3.83486 4.41815 3.67957 4.79305C3.52428 5.16795 3.48365 5.58048 3.56282 5.97848C3.64198 6.37647 3.83739 6.74205 4.12433 7.02899C4.41126 7.31593 4.77684 7.51133 5.17484 7.5905C5.57283 7.66966 5.98536 7.62903 6.36027 7.47374C6.73517 7.31845 7.0556 7.05548 7.28105 6.71808C7.50649 6.38068 7.62683 5.984 7.62683 5.57821C7.62621 5.03425 7.40984 4.51274 7.02521 4.12811C6.64057 3.74347 6.11907 3.52711 5.57511 3.52649ZM5.57511 6.60406C5.37221 6.60406 5.17387 6.5439 5.00517 6.43118C4.83647 6.31845 4.70498 6.15824 4.62734 5.97078C4.54969 5.78333 4.52938 5.57707 4.56896 5.37807C4.60854 5.17907 4.70625 4.99628 4.84972 4.85281C4.99319 4.70935 5.17598 4.61164 5.37497 4.57206C5.57397 4.53248 5.78024 4.55279 5.96769 4.63044C6.15514 4.70808 6.31536 4.83957 6.42808 5.00827C6.5408 5.17697 6.60097 5.37531 6.60097 5.57821C6.60065 5.85018 6.49247 6.11093 6.30015 6.30325C6.10784 6.49557 5.84709 6.60375 5.57511 6.60406Z" fill="black"/>
<path d="M9.51767 1.63256C8.54287 0.65801 7.24163 0.0790866 5.86509 0.00752453C4.48855 -0.0640376 3.13429 0.376835 2.06369 1.24505C0.993093 2.11327 0.282047 3.34728 0.0677866 4.70893C-0.146474 6.07057 0.15124 7.46332 0.90347 8.61837L4.77952 14.5688C4.86577 14.7012 4.98371 14.81 5.12264 14.8853C5.26157 14.9606 5.41709 15 5.57512 15C5.73314 15 5.88867 14.9606 6.0276 14.8853C6.16652 14.81 6.28446 14.7012 6.37072 14.5688L10.2469 8.61837C10.9449 7.54689 11.2533 6.26806 11.1206 4.9962C10.9878 3.72435 10.4219 2.53679 9.51767 1.63256ZM9.38735 8.05841L5.57513 13.9106L1.76288 8.05841C0.595969 6.26704 0.846247 3.86973 2.35798 2.35794C2.78046 1.93545 3.28201 1.60031 3.83402 1.37166C4.38602 1.14301 4.97765 1.02532 5.57513 1.02532C6.17262 1.02532 6.76425 1.14301 7.31625 1.37166C7.86825 1.60031 8.36981 1.93545 8.79229 2.35794C10.304 3.86973 10.5543 6.26704 9.38735 8.05841Z" fill="black"/>
</svg>
