<svg width="65" height="49" viewBox="0 0 65 49" fill="none" xmlns="http://www.w3.org/2000/svg">
<path d="M28.3261 48.7506L22.1313 47.0635C21.4813 46.8919 21.1157 46.2533 21.2985 45.6433L35.1607 0.825706C35.3435 0.215683 36.0239 -0.127454 36.6739 0.0441147L42.8687 1.73121C43.5187 1.90278 43.8843 2.54139 43.7015 3.15142L29.8393 47.969C29.6463 48.579 28.9761 48.9317 28.3261 48.7506ZM16.7489 38.0561L21.1665 33.6335C21.6337 33.1664 21.6032 32.423 21.0853 31.994L11.8844 24.3974L21.0853 16.8007C21.6032 16.3717 21.6438 15.6283 21.1665 15.1612L16.7489 10.7386C16.2919 10.2811 15.5201 10.2525 15.0225 10.6909L0.388446 23.5586C-0.129482 24.0066 -0.129482 24.7786 0.388446 25.2266L15.0225 38.1038C15.5201 38.5422 16.2919 38.5232 16.7489 38.0561ZM49.9775 38.1133L64.6116 25.2361C65.1295 24.7881 65.1295 24.0161 64.6116 23.5681L49.9775 10.6814C49.4901 10.2525 48.7183 10.2715 48.2511 10.729L43.8335 15.1517C43.3663 15.6187 43.3968 16.3622 43.9147 16.7911L53.1156 24.3974L43.9147 31.994C43.3968 32.423 43.3562 33.1664 43.8335 33.6335L48.2511 38.0561C48.7081 38.5232 49.4799 38.5422 49.9775 38.1133Z" fill="#7FBF4C"/>
</svg>
