<svg width="18" height="17" viewBox="0 0 18 17" fill="none" xmlns="http://www.w3.org/2000/svg">
<path d="M4.5 1.69949C4.5 1.24875 4.68964 0.816483 5.02721 0.497768C5.36477 0.179052 5.82261 0 6.3 0H11.7C12.1774 0 12.6352 0.179052 12.9728 0.497768C13.3104 0.816483 13.5 1.24875 13.5 1.69949V3.39897H17.1C17.3387 3.39897 17.5676 3.4885 17.7364 3.64786C17.9052 3.80721 18 4.02335 18 4.24871C18 4.47408 17.9052 4.69022 17.7364 4.84957C17.5676 5.00893 17.3387 5.09846 17.1 5.09846H16.1379L15.3576 15.416C15.3253 15.8448 15.1221 16.2461 14.7889 16.539C14.4557 16.832 14.0174 16.9949 13.5621 16.9949H4.437C3.98173 16.9949 3.54336 16.832 3.2102 16.539C2.87703 16.2461 2.67382 15.8448 2.6415 15.416L1.863 5.09846H0.9C0.661305 5.09846 0.432387 5.00893 0.263604 4.84957C0.0948211 4.69022 0 4.47408 0 4.24871C0 4.02335 0.0948211 3.80721 0.263604 3.64786C0.432387 3.4885 0.661305 3.39897 0.9 3.39897H4.5V1.69949ZM6.3 3.39897H11.7V1.69949H6.3V3.39897ZM3.6666 5.09846L4.4379 15.2954H13.563L14.3343 5.09846H3.6666ZM7.2 6.79794C7.43869 6.79794 7.66761 6.88747 7.8364 7.04683C8.00518 7.20618 8.1 7.42232 8.1 7.64769V12.7461C8.1 12.9715 8.00518 13.1876 7.8364 13.347C7.66761 13.5064 7.43869 13.5959 7.2 13.5959C6.9613 13.5959 6.73239 13.5064 6.5636 13.347C6.39482 13.1876 6.3 12.9715 6.3 12.7461V7.64769C6.3 7.42232 6.39482 7.20618 6.5636 7.04683C6.73239 6.88747 6.9613 6.79794 7.2 6.79794ZM10.8 6.79794C11.0387 6.79794 11.2676 6.88747 11.4364 7.04683C11.6052 7.20618 11.7 7.42232 11.7 7.64769V12.7461C11.7 12.9715 11.6052 13.1876 11.4364 13.347C11.2676 13.5064 11.0387 13.5959 10.8 13.5959C10.5613 13.5959 10.3324 13.5064 10.1636 13.347C9.99482 13.1876 9.9 12.9715 9.9 12.7461V7.64769C9.9 7.42232 9.99482 7.20618 10.1636 7.04683C10.3324 6.88747 10.5613 6.79794 10.8 6.79794Z" fill="#88CC00"/>
</svg>
