<svg width="12" height="15" viewBox="0 0 12 15" fill="none" xmlns="http://www.w3.org/2000/svg">
<path d="M5.57515 3.52637C5.16936 3.52637 4.77269 3.6467 4.43528 3.87214C4.09788 4.09759 3.83491 4.41802 3.67962 4.79293C3.52433 5.16783 3.4837 5.58036 3.56286 5.97835C3.64203 6.37635 3.83743 6.74193 4.12437 7.02887C4.41131 7.3158 4.77689 7.51121 5.17488 7.59038C5.57288 7.66954 5.98541 7.62891 6.36031 7.47362C6.73521 7.31833 7.05565 7.05536 7.28109 6.71796C7.50654 6.38055 7.62687 5.98387 7.62687 5.57808C7.62625 5.03412 7.40989 4.51262 7.02525 4.12799C6.64062 3.74335 6.11911 3.52699 5.57515 3.52637ZM5.57515 6.60394C5.37226 6.60394 5.17392 6.54378 5.00522 6.43105C4.83652 6.31833 4.70503 6.15811 4.62739 5.97066C4.54974 5.78321 4.52942 5.57695 4.56901 5.37795C4.60859 5.17895 4.70629 4.99616 4.84976 4.85269C4.99323 4.70922 5.17602 4.61152 5.37502 4.57194C5.57402 4.53235 5.78028 4.55267 5.96773 4.63031C6.15518 4.70796 6.3154 4.83945 6.42812 5.00815C6.54085 5.17685 6.60101 5.37519 6.60101 5.57808C6.6007 5.85006 6.49252 6.11081 6.3002 6.30313C6.10788 6.49545 5.84713 6.60363 5.57515 6.60394Z" fill="black"/>
<path d="M9.51766 1.63256C8.54287 0.65801 7.24163 0.0790866 5.86509 0.00752453C4.48855 -0.0640376 3.13429 0.376835 2.06369 1.24505C0.993093 2.11327 0.282047 3.34728 0.0677866 4.70893C-0.146474 6.07057 0.15124 7.46332 0.90347 8.61837L4.77952 14.5688C4.86577 14.7012 4.98371 14.81 5.12264 14.8853C5.26157 14.9606 5.41709 15 5.57512 15C5.73314 15 5.88867 14.9606 6.0276 14.8853C6.16652 14.81 6.28446 14.7012 6.37072 14.5688L10.2469 8.61837C10.9449 7.54689 11.2533 6.26806 11.1206 4.9962C10.9878 3.72435 10.4219 2.53679 9.51766 1.63256ZM9.38735 8.05841L5.57513 13.9106L1.76288 8.05841C0.595969 6.26704 0.846247 3.86973 2.35798 2.35794C2.78046 1.93545 3.28201 1.60031 3.83402 1.37166C4.38602 1.14301 4.97765 1.02532 5.57513 1.02532C6.17262 1.02532 6.76425 1.14301 7.31625 1.37166C7.86825 1.60031 8.36981 1.93545 8.79229 2.35794C10.304 3.86973 10.5543 6.26704 9.38735 8.05841Z" fill="black"/>
</svg>
