<svg width="15" height="16" viewBox="0 0 15 16" fill="none" xmlns="http://www.w3.org/2000/svg">
<path d="M6.56879 3.65432L5.19615 0.953254C5.13706 0.836961 5.22157 0.69926 5.35208 0.69926H9.64782C9.77833 0.69926 9.86275 0.836876 9.80364 0.953169L8.43112 3.65433C8.34364 3.82649 8.41229 4.03695 8.58444 4.12442C8.75659 4.2119 8.96705 4.14325 9.05453 3.9711L10.427 1.27004C10.7227 0.688608 10.3002 0 9.64784 0H5.3521C4.69982 0 4.27733 0.688471 4.57276 1.27L5.94543 3.97112C6.03291 4.14325 6.24338 4.2119 6.41552 4.12441C6.58765 4.03691 6.6563 3.82645 6.56881 3.65432H6.56879Z" fill="black"/>
<path d="M11.1541 14.3088C12.892 14.3088 14.3007 12.9 14.3007 11.1621V10.4255C14.3007 7.06107 11.5466 4.30693 8.18221 4.30693H6.81779C3.4534 4.30693 0.69926 7.06107 0.69926 10.4255V11.1621C0.69926 12.9 2.10813 14.3088 3.84593 14.3088H11.1541ZM11.1541 15.008H3.84593C1.72195 15.008 0 13.2862 0 11.1621V10.4255C0 6.67487 3.0672 3.60767 6.81779 3.60767H8.18221C11.9328 3.60767 15 6.67487 15 10.4255V11.1621C15 13.2862 13.2782 15.008 11.1541 15.008Z" fill="black"/>
</svg>
