<svg width="13" height="12" viewBox="0 0 13 12" fill="none" xmlns="http://www.w3.org/2000/svg">
<path d="M11.05 1.95H9.1V1.3C9.1 0.955219 8.96304 0.624558 8.71924 0.380761C8.47544 0.136964 8.14478 0 7.8 0H5.2C4.85522 0 4.52456 0.136964 4.28076 0.380761C4.03696 0.624558 3.9 0.955219 3.9 1.3V1.95H1.95C1.43283 1.95 0.936838 2.15545 0.571142 2.52114C0.205446 2.88684 0 3.38283 0 3.9V9.75C0 10.2672 0.205446 10.7632 0.571142 11.1289C0.936838 11.4946 1.43283 11.7 1.95 11.7H11.05C11.5672 11.7 12.0632 11.4946 12.4289 11.1289C12.7946 10.7632 13 10.2672 13 9.75V3.9C13 3.38283 12.7946 2.88684 12.4289 2.52114C12.0632 2.15545 11.5672 1.95 11.05 1.95ZM5.2 1.3H7.8V1.95H5.2V1.3ZM11.7 9.75C11.7 9.92239 11.6315 10.0877 11.5096 10.2096C11.3877 10.3315 11.2224 10.4 11.05 10.4H1.95C1.77761 10.4 1.61228 10.3315 1.49038 10.2096C1.36848 10.0877 1.3 9.92239 1.3 9.75V6.1035L4.342 7.15C4.41102 7.15937 4.48098 7.15937 4.55 7.15H8.45C8.52049 7.1487 8.59047 7.13776 8.658 7.1175L11.7 6.1035V9.75ZM11.7 4.732L8.346 5.85H4.654L1.3 4.732V3.9C1.3 3.72761 1.36848 3.56228 1.49038 3.44038C1.61228 3.31848 1.77761 3.25 1.95 3.25H11.05C11.2224 3.25 11.3877 3.31848 11.5096 3.44038C11.6315 3.56228 11.7 3.72761 11.7 3.9V4.732Z" fill="black"/>
</svg>
