<svg width="60" height="53" viewBox="0 0 60 53" fill="none" xmlns="http://www.w3.org/2000/svg">
<path d="M37.5 35.625C37.5 36.6609 36.6609 37.5 35.625 37.5H24.375C23.3391 37.5 22.5 36.6609 22.5 35.625V30H0V46.875C0 49.875 2.625 52.5 5.625 52.5H54.375C57.375 52.5 60 49.875 60 46.875V30H37.5V35.625ZM54.375 11.25H45V5.625C45 2.625 42.375 0 39.375 0H20.625C17.625 0 15 2.625 15 5.625V11.25H5.625C2.625 11.25 0 13.875 0 16.875V26.25H60V16.875C60 13.875 57.375 11.25 54.375 11.25ZM37.5 11.25H22.5V7.5H37.5V11.25Z" fill="#88CC00"/>
</svg>
