<svg width="287" height="81" viewBox="0 0 287 81" fill="none" xmlns="http://www.w3.org/2000/svg">
<path d="M15.5 58V73.5" stroke="#D9D9D9" stroke-width="6"/>
<path d="M31.5 58.5V74" stroke="#D9D9D9" stroke-width="6"/>
<path d="M47.5 58.5V74" stroke="#D9D9D9" stroke-width="6"/>
<path d="M63.5 58.5V74" stroke="#D9D9D9" stroke-width="6"/>
<path d="M79.5 48L79.5 74" stroke="#88CC00" stroke-width="6"/>
<path d="M95.5 23L95.5 74" stroke="#88CC00" stroke-width="6"/>
<path d="M111.5 0L111.5 74" stroke="#88CC00" stroke-width="6"/>
<path d="M127.5 28L127.5 74" stroke="#88CC00" stroke-width="6"/>
<path d="M143.5 48L143.5 74" stroke="#88CC00" stroke-width="6"/>
<path d="M159.5 58.5V74" stroke="#88CC00" stroke-width="6"/>
<path d="M175.5 32L175.5 74" stroke="#88CC00" stroke-width="6"/>
<path d="M191.5 23L191.5 74" stroke="#88CC00" stroke-width="6"/>
<path d="M207.5 48L207.5 74" stroke="#D9D9D9" stroke-width="6"/>
<path d="M223.5 49L223.5 74" stroke="#D9D9D9" stroke-width="6"/>
<path d="M239.5 32L239.5 74" stroke="#D9D9D9" stroke-width="6"/>
<path d="M255.5 58.5V74" stroke="#D9D9D9" stroke-width="6"/>
<path d="M271.5 58.5V74" stroke="#D9D9D9" stroke-width="6"/>
<path d="M0 79.5H287" stroke="#D9D9D9" stroke-width="3"/>
</svg>
