<svg width="31" height="29" viewBox="0 0 31 29" fill="none" xmlns="http://www.w3.org/2000/svg">
<path d="M29.5167 25.7388L23.85 20.5125C25.6783 18.358 26.6704 15.6973 26.6667 12.9583C26.6667 10.519 25.8847 8.13451 24.4196 6.10631C22.9545 4.0781 20.8721 2.49731 18.4358 1.56382C15.9994 0.630344 13.3186 0.386103 10.7321 0.861987C8.14572 1.33787 5.76995 2.51251 3.90525 4.23736C2.04055 5.9622 0.770672 8.15979 0.256202 10.5522C-0.258267 12.9447 0.00577708 15.4245 1.01495 17.6781C2.02411 19.9317 3.73308 21.8579 5.92574 23.2131C8.11839 24.5683 10.6963 25.2917 13.3333 25.2917C16.2944 25.2951 19.1708 24.3774 21.5 22.6863L27.15 27.9279C27.3049 28.0724 27.4893 28.1871 27.6924 28.2654C27.8955 28.3437 28.1133 28.3839 28.3333 28.3839C28.5534 28.3839 28.7712 28.3437 28.9743 28.2654C29.1774 28.1871 29.3617 28.0724 29.5167 27.9279C29.6729 27.7846 29.7969 27.6141 29.8815 27.4262C29.9661 27.2384 30.0097 27.0369 30.0097 26.8333C30.0097 26.6298 29.9661 26.4283 29.8815 26.2405C29.7969 26.0526 29.6729 25.8821 29.5167 25.7388ZM3.33334 12.9583C3.33334 11.1289 3.91983 9.34047 5.01864 7.81931C6.11746 6.29816 7.67924 5.11256 9.50651 4.41245C11.3338 3.71234 13.3444 3.52916 15.2842 3.88608C17.2241 4.24299 19.0059 5.12397 20.4044 6.4176C21.8029 7.71124 22.7553 9.35943 23.1412 11.1538C23.527 12.9481 23.329 14.8079 22.5721 16.4982C21.8153 18.1884 20.5335 19.633 18.889 20.6494C17.2446 21.6658 15.3112 22.2083 13.3333 22.2083C10.6812 22.2083 8.13764 21.2338 6.26227 19.4991C4.38691 17.7644 3.33334 15.4116 3.33334 12.9583Z" fill="#F4F4F4"/>
</svg>
