<svg width="122" height="117" viewBox="0 0 122 117" fill="none" xmlns="http://www.w3.org/2000/svg">
<path d="M121.5 58.5C121.5 57.3838 121.467 56.2749 121.402 55.1742L120.903 55.2037C120.772 52.9863 120.51 50.8024 120.125 48.6592L120.617 48.5707C120.221 46.3721 119.696 44.2159 119.05 42.1095L118.572 42.2561C117.925 40.1456 117.155 38.0856 116.27 36.0836L116.727 35.8814C115.828 33.8485 114.812 31.8752 113.686 29.969L113.256 30.2233C112.138 28.3301 110.911 26.5036 109.584 24.7518L109.982 24.4498C108.645 22.6848 107.206 20.9949 105.675 19.3881L105.313 19.7331C103.8 18.1459 102.196 16.6404 100.508 15.224L100.83 14.841C99.1376 13.4213 97.3625 12.0905 95.5121 10.8563L95.2346 11.2723C93.4141 10.058 91.5201 8.93794 89.5601 7.91944L89.7907 7.47577C87.836 6.45997 85.8164 5.5444 83.7394 4.73624L83.5581 5.20222C81.5244 4.41092 79.4352 3.72341 77.2976 3.14657L77.4278 2.66383C75.3069 2.09147 73.1387 1.62719 70.9303 1.27758L70.8521 1.77143C68.7032 1.43123 66.5158 1.20046 64.2962 1.0853L64.3221 0.585971C63.2223 0.528902 62.1146 0.5 61 0.5C59.8854 0.5 58.7777 0.528902 57.6778 0.585971L57.7038 1.0853C55.4842 1.20047 53.2968 1.43123 51.1479 1.77143L51.0697 1.27758C48.8613 1.62719 46.6931 2.09147 44.5722 2.66383L44.7024 3.14656C42.5648 3.72341 40.4756 4.41092 38.4419 5.20221L38.2606 4.73624C36.1836 5.5444 34.164 6.45997 32.2093 7.47577L32.4399 7.91944C30.48 8.93794 28.5859 10.058 26.7654 11.2723L26.4879 10.8563C24.6375 12.0905 22.8624 13.4213 21.1704 14.841L21.4918 15.224C19.8039 16.6404 18.1997 18.1459 16.687 19.7331L16.325 19.3881C14.7935 20.9949 13.355 22.6848 12.0177 24.4498L12.4163 24.7518C11.0889 26.5036 9.86226 28.3301 8.74438 30.2233L8.31383 29.969C7.18832 31.8752 6.17205 33.8485 5.2732 35.8814L5.73049 36.0835C4.84526 38.0856 4.075 40.1456 3.42767 42.2561L2.94965 42.1095C2.30357 44.2159 1.77883 46.3721 1.38319 48.5707L1.87528 48.6592C1.4896 50.8024 1.22772 52.9862 1.09694 55.2037L0.597811 55.1742C0.532894 56.2749 0.5 57.3838 0.5 58.5C0.5 59.6162 0.532894 60.7251 0.59781 61.8258L1.09694 61.7963C1.22772 64.0137 1.4896 66.1976 1.87528 68.3408L1.38319 68.4293C1.77883 70.6279 2.30357 72.7841 2.94965 74.8905L3.42767 74.7439C4.075 76.8544 4.84526 78.9144 5.73049 80.9164L5.2732 81.1186C6.17205 83.1515 7.18832 85.1248 8.31383 87.031L8.74438 86.7767C9.86226 88.6699 11.0889 90.4964 12.4163 92.2482L12.0177 92.5502C13.355 94.3152 14.7935 96.0051 16.325 97.6119L16.687 97.2669C18.1997 98.8541 19.8039 100.36 21.4918 101.776L21.1704 102.159C22.8624 103.579 24.6375 104.909 26.4879 106.144L26.7654 105.728C28.5859 106.942 30.48 108.062 32.4399 109.081L32.2093 109.524C34.164 110.54 36.1836 111.456 38.2606 112.264L38.4419 111.798C40.4756 112.589 42.5648 113.277 44.7024 113.853L44.5722 114.336C46.6931 114.909 48.8613 115.373 51.0697 115.722L51.1479 115.229C53.2968 115.569 55.4842 115.8 57.7038 115.915L57.6779 116.414C58.7777 116.471 59.8854 116.5 61 116.5C62.1146 116.5 63.2223 116.471 64.3222 116.414L64.2962 115.915C66.5158 115.8 68.7032 115.569 70.8521 115.229L70.9303 115.722C73.1387 115.373 75.3069 114.909 77.4278 114.336L77.2976 113.853C79.4352 113.277 81.5244 112.589 83.5581 111.798L83.7394 112.264C85.8164 111.456 87.836 110.54 89.7907 109.524L89.5601 109.081C91.5201 108.062 93.4141 106.942 95.2346 105.728L95.5121 106.144C97.3625 104.909 99.1376 103.579 100.83 102.159L100.508 101.776C102.196 100.36 103.8 98.8541 105.313 97.2669L105.675 97.6119C107.206 96.0051 108.645 94.3152 109.982 92.5502L109.584 92.2482C110.911 90.4964 112.138 88.6699 113.256 86.7767L113.686 87.031C114.812 85.1248 115.828 83.1515 116.727 81.1187L116.27 80.9165C117.155 78.9144 117.925 76.8544 118.572 74.7439L119.05 74.8905C119.696 72.7841 120.221 70.6279 120.617 68.4293L120.125 68.3408C120.51 66.1976 120.772 64.0137 120.903 61.7963L121.402 61.8258C121.467 60.7251 121.5 59.6162 121.5 58.5Z" stroke="white" stroke-dasharray="7 7"/>
<path d="M61 58.5C71.7313 58.5 80.4286 50.5541 80.4286 40.75C80.4286 30.9459 71.7313 23 61 23C50.2688 23 41.5714 30.9459 41.5714 40.75C41.5714 50.5541 50.2688 58.5 61 58.5ZM74.6 62.9375H72.0652C68.6955 64.352 64.9464 65.1562 61 65.1562C57.0536 65.1562 53.3196 64.352 49.9348 62.9375H47.4C36.1375 62.9375 27 71.2855 27 81.575V87.3438C27 91.0186 30.2634 94 34.2857 94H87.7143C91.7366 94 95 91.0186 95 87.3438V81.575C95 71.2855 85.8625 62.9375 74.6 62.9375Z" fill="white"/>
</svg>
