<svg width="30" height="21" viewBox="0 0 30 21" fill="none" xmlns="http://www.w3.org/2000/svg">
<path fill-rule="evenodd" clip-rule="evenodd" d="M7.51333 1.6878L5.59333 4.60519H2.5C1.83696 4.60519 1.20107 4.78713 0.732233 5.111C0.263392 5.43486 0 5.87412 0 6.33213V8.49887L0.838333 8.78785C5.2354 10.3065 10.0839 11.0972 15 11.0972C19.9161 11.0972 24.7646 10.3065 29.1617 8.78785L30 8.49887V6.33213C30 5.87412 29.7366 5.43486 29.2678 5.111C28.7989 4.78713 28.163 4.60519 27.5 4.60519H24.4067L22.4867 1.6878C22.1557 1.18457 21.622 0.757809 20.9494 0.45851C20.2767 0.15921 19.4935 3.24437e-05 18.6933 0H11.3067C10.5065 3.24437e-05 9.72332 0.15921 9.05064 0.45851C8.37797 0.757809 7.84427 1.18457 7.51333 1.6878ZM11.3067 2.30259C11.1467 2.30262 10.9902 2.33445 10.8557 2.39426C10.7213 2.45408 10.6145 2.53936 10.5483 2.63992L9.255 4.60519H20.745L19.4517 2.63992C19.3855 2.53936 19.2787 2.45408 19.1443 2.39426C19.0098 2.33445 18.8533 2.30262 18.6933 2.30259H11.3067Z" fill="#88CC00"/>
<path d="M30 11.0674C25.8201 12.4377 21.2882 13.2216 16.6667 13.3735V14.9669C16.6667 15.2722 16.4911 15.5651 16.1785 15.781C15.8659 15.9969 15.442 16.1182 15 16.1182C14.558 16.1182 14.134 15.9969 13.8215 15.781C13.5089 15.5651 13.3333 15.2722 13.3333 14.9669V13.3735C8.76667 13.2227 4.23333 12.4548 0 11.0674V18.9964C0 19.4544 0.263392 19.8937 0.732233 20.2176C1.20107 20.5414 1.83696 20.7234 2.5 20.7234H27.5C28.163 20.7234 28.7989 20.5414 29.2678 20.2176C29.7366 19.8937 30 19.4544 30 18.9964V11.0674Z" fill="#88CC00"/>
</svg>
